<svg width="62" height="90" viewBox="0 0 62 90" fill="none" xmlns="http://www.w3.org/2000/svg">
<path d="M54 0H8C3.58172 0 0 3.58172 0 8V82C0 86.4183 3.58172 90 8 90H54C58.4183 90 62 86.4183 62 82V8C62 3.58172 58.4183 0 54 0Z" fill="#858585"/>
<path d="M52 6H10C7.79086 6 6 7.79086 6 10V23C6 25.2091 7.79086 27 10 27H52C54.2091 27 56 25.2091 56 23V10C56 7.79086 54.2091 6 52 6Z" fill="#D4D4D2"/>
<path d="M12 46C15.3137 46 18 43.3137 18 40C18 36.6863 15.3137 34 12 34C8.68629 34 6 36.6863 6 40C6 43.3137 8.68629 46 12 46Z" fill="#D4D4D2"/>
<path d="M31 46C34.3137 46 37 43.3137 37 40C37 36.6863 34.3137 34 31 34C27.6863 34 25 36.6863 25 40C25 43.3137 27.6863 46 31 46Z" fill="#D4D4D2"/>
<path d="M50 46C53.3137 46 56 43.3137 56 40C56 36.6863 53.3137 34 50 34C46.6863 34 44 36.6863 44 40C44 43.3137 46.6863 46 50 46Z" fill="#FE9500"/>
<path d="M12 65C15.3137 65 18 62.3137 18 59C18 55.6863 15.3137 53 12 53C8.68629 53 6 55.6863 6 59C6 62.3137 8.68629 65 12 65Z" fill="#D4D4D2"/>
<path d="M31 65C34.3137 65 37 62.3137 37 59C37 55.6863 34.3137 53 31 53C27.6863 53 25 55.6863 25 59C25 62.3137 27.6863 65 31 65Z" fill="#D4D4D2"/>
<path d="M50 65C53.3137 65 56 62.3137 56 59C56 55.6863 53.3137 53 50 53C46.6863 53 44 55.6863 44 59C44 62.3137 46.6863 65 50 65Z" fill="#FE9500"/>
<path d="M12 84C10.4087 84 8.88258 83.3679 7.75736 82.2426C6.63214 81.1174 6 79.5913 6 78C6 76.4087 6.63214 74.8826 7.75736 73.7574C8.88258 72.6321 10.4087 72 12 72H31C32.5913 72 34.1174 72.6321 35.2426 73.7574C36.3679 74.8826 37 76.4087 37 78C37 79.5913 36.3679 81.1174 35.2426 82.2426C34.1174 83.3679 32.5913 84 31 84H12Z" fill="#D4D4D2"/>
<path d="M50 84C53.3137 84 56 81.3137 56 78C56 74.6863 53.3137 72 50 72C46.6863 72 44 74.6863 44 78C44 81.3137 46.6863 84 50 84Z" fill="#FE9500"/>
</svg>
